# xmcd
#
# Track frame offsets:
#	300
#	19908
#	41334
#	56866
#	73333
#	90650
#	112331
#	130937
#	150443
#	170847
#	183377
#	199733
#	213539
#	227944
#
# Disc length: 3252 seconds
#
# Revision: 0
# Processed by: cddbd v1.5.2PL0 Copyright (c) Steve Scherf et al.
# Submitted via: audiograbber 1.83.01
#
DISCID=d50cb00e
DTITLE=Russell B. Burke - The Wolf
DYEAR=2017
DGENRE=Country
TTITLE0=Ain't No Wolf
TTITLE1=Me And Bobby McGee
TTITLE2=Good Hearted Woman
TTITLE3=Sounds Of Silence
TTITLE4=Grandpas House (NZStyle)
TTITLE5=Whiskey Lullaby
TTITLE6=Where Corn Don't Grow
TTITLE7=Wagon Wheel
TTITLE8=Old Dogs, Children And Watermelon Wine
TTITLE9=Okie From Muskogee
TTITLE10=The Gambler
TTITLE11=Gypsy Woman
TTITLE12=Swinging Doors
TTITLE13=Help Me Make It Through The Night
EXTD=
EXTT0=
EXTT1=
EXTT2=
EXTT3=
EXTT4=
EXTT5=
EXTT6=
EXTT7=
EXTT8=
EXTT9=
EXTT10=
EXTT11=
EXTT12=
EXTT13=
PLAYORDER=
